# xmcd
#
# Track frame offsets:
#	150
#	22970
#	47970
#	72655
#	86935
#	92990
#	115727
#	133692
#	153475
#
# Disc length: 2399
#
# Revision: 1
# Processed by: cddbd v1.5.1PL0 Copyright (c) Steve Scherf et al.
# Submitted via: CDex 1.50
# Normalized: r0:TRMNUM
#
DISCID=7e095d09
DTITLE=Kimiko Itoh - For Lovers Only
DYEAR=1987
DGENRE=Jazz
TTITLE0=The first time ever I saw your face
TTITLE1=Dindi
TTITLE2=Together
TTITLE3=Somewhere
TTITLE4=Interlude
TTITLE5=Let it be me
TTITLE6=The look of love
TTITLE7=All in love is fair
TTITLE8=For all we know
EXTD=YEAR: 1987
EXTT0=
EXTT1=
EXTT2=
EXTT3=
EXTT4=
EXTT5=
EXTT6=
EXTT7=
EXTT8=
PLAYORDER=
